<?xml version='1.0' encoding='utf-8'?>
<svg xmlns:xlink="http://www.w3.org/1999/xlink" xmlns="http://www.w3.org/2000/svg" id="chart-dc24b140-dda4-4ef6-b713-683ce069595f" class="pygal-chart" viewBox="0 0 800 600"><!--Generated with pygal 2.4.0 (lxml) ©Kozea 2012-2016 on 2019-02-03--><!--http://pygal.org--><!--http://github.com/Kozea/pygal--><defs><style type="text/css">#chart-dc24b140-dda4-4ef6-b713-683ce069595f{-webkit-user-select:none;-webkit-font-smoothing:antialiased;font-family:Consolas,"Liberation Mono",Menlo,Courier,monospace}#chart-dc24b140-dda4-4ef6-b713-683ce069595f .title{font-family:Consolas,"Liberation Mono",Menlo,Courier,monospace;font-size:16px}#chart-dc24b140-dda4-4ef6-b713-683ce069595f .legends .legend text{font-family:Consolas,"Liberation Mono",Menlo,Courier,monospace;font-size:14px}#chart-dc24b140-dda4-4ef6-b713-683ce069595f .axis text{font-family:Consolas,"Liberation Mono",Menlo,Courier,monospace;font-size:10px}#chart-dc24b140-dda4-4ef6-b713-683ce069595f .axis text.major{font-family:Consolas,"Liberation Mono",Menlo,Courier,monospace;font-size:10px}#chart-dc24b140-dda4-4ef6-b713-683ce069595f .text-overlay text.value{font-family:Consolas,"Liberation Mono",Menlo,Courier,monospace;font-size:16px}#chart-dc24b140-dda4-4ef6-b713-683ce069595f .text-overlay text.label{font-family:Consolas,"Liberation Mono",Menlo,Courier,monospace;font-size:10px}#chart-dc24b140-dda4-4ef6-b713-683ce069595f .tooltip{font-family:Consolas,"Liberation Mono",Menlo,Courier,monospace;font-size:14px}#chart-dc24b140-dda4-4ef6-b713-683ce069595f text.no_data{font-family:Consolas,"Liberation Mono",Menlo,Courier,monospace;font-size:64px}
#chart-dc24b140-dda4-4ef6-b713-683ce069595f{background-color:rgba(249,249,249,1)}#chart-dc24b140-dda4-4ef6-b713-683ce069595f path,#chart-dc24b140-dda4-4ef6-b713-683ce069595f line,#chart-dc24b140-dda4-4ef6-b713-683ce069595f rect,#chart-dc24b140-dda4-4ef6-b713-683ce069595f circle{-webkit-transition:150ms;-moz-transition:150ms;transition:150ms}#chart-dc24b140-dda4-4ef6-b713-683ce069595f .graph &gt; .background{fill:rgba(249,249,249,1)}#chart-dc24b140-dda4-4ef6-b713-683ce069595f .plot &gt; .background{fill:rgba(255,255,255,1)}#chart-dc24b140-dda4-4ef6-b713-683ce069595f .graph{fill:rgba(0,0,0,.87)}#chart-dc24b140-dda4-4ef6-b713-683ce069595f text.no_data{fill:rgba(0,0,0,1)}#chart-dc24b140-dda4-4ef6-b713-683ce069595f .title{fill:rgba(0,0,0,1)}#chart-dc24b140-dda4-4ef6-b713-683ce069595f .legends .legend text{fill:rgba(0,0,0,.87)}#chart-dc24b140-dda4-4ef6-b713-683ce069595f .legends .legend:hover text{fill:rgba(0,0,0,1)}#chart-dc24b140-dda4-4ef6-b713-683ce069595f .axis .line{stroke:rgba(0,0,0,1)}#chart-dc24b140-dda4-4ef6-b713-683ce069595f .axis .guide.line{stroke:rgba(0,0,0,.54)}#chart-dc24b140-dda4-4ef6-b713-683ce069595f .axis .major.line{stroke:rgba(0,0,0,.87)}#chart-dc24b140-dda4-4ef6-b713-683ce069595f .axis text.major{fill:rgba(0,0,0,1)}#chart-dc24b140-dda4-4ef6-b713-683ce069595f .axis.y .guides:hover .guide.line,#chart-dc24b140-dda4-4ef6-b713-683ce069595f .line-graph .axis.x .guides:hover .guide.line,#chart-dc24b140-dda4-4ef6-b713-683ce069595f .stackedline-graph .axis.x .guides:hover .guide.line,#chart-dc24b140-dda4-4ef6-b713-683ce069595f .xy-graph .axis.x .guides:hover .guide.line{stroke:rgba(0,0,0,1)}#chart-dc24b140-dda4-4ef6-b713-683ce069595f .axis .guides:hover text{fill:rgba(0,0,0,1)}#chart-dc24b140-dda4-4ef6-b713-683ce069595f .reactive{fill-opacity:.7;stroke-opacity:.8}#chart-dc24b140-dda4-4ef6-b713-683ce069595f .ci{stroke:rgba(0,0,0,.87)}#chart-dc24b140-dda4-4ef6-b713-683ce069595f .reactive.active,#chart-dc24b140-dda4-4ef6-b713-683ce069595f .active .reactive{fill-opacity:.8;stroke-opacity:.9;stroke-width:4}#chart-dc24b140-dda4-4ef6-b713-683ce069595f .ci .reactive.active{stroke-width:1.5}#chart-dc24b140-dda4-4ef6-b713-683ce069595f .series text{fill:rgba(0,0,0,1)}#chart-dc24b140-dda4-4ef6-b713-683ce069595f .tooltip rect{fill:rgba(255,255,255,1);stroke:rgba(0,0,0,1);-webkit-transition:opacity 150ms;-moz-transition:opacity 150ms;transition:opacity 150ms}#chart-dc24b140-dda4-4ef6-b713-683ce069595f .tooltip .label{fill:rgba(0,0,0,.87)}#chart-dc24b140-dda4-4ef6-b713-683ce069595f .tooltip .label{fill:rgba(0,0,0,.87)}#chart-dc24b140-dda4-4ef6-b713-683ce069595f .tooltip .legend{font-size:.8em;fill:rgba(0,0,0,.54)}#chart-dc24b140-dda4-4ef6-b713-683ce069595f .tooltip .x_label{font-size:.6em;fill:rgba(0,0,0,1)}#chart-dc24b140-dda4-4ef6-b713-683ce069595f .tooltip .xlink{font-size:.5em;text-decoration:underline}#chart-dc24b140-dda4-4ef6-b713-683ce069595f .tooltip .value{font-size:1.5em}#chart-dc24b140-dda4-4ef6-b713-683ce069595f .bound{font-size:.5em}#chart-dc24b140-dda4-4ef6-b713-683ce069595f .max-value{font-size:.75em;fill:rgba(0,0,0,.54)}#chart-dc24b140-dda4-4ef6-b713-683ce069595f .map-element{fill:rgba(255,255,255,1);stroke:rgba(0,0,0,.54) !important}#chart-dc24b140-dda4-4ef6-b713-683ce069595f .map-element .reactive{fill-opacity:inherit;stroke-opacity:inherit}#chart-dc24b140-dda4-4ef6-b713-683ce069595f .color-0,#chart-dc24b140-dda4-4ef6-b713-683ce069595f .color-0 a:visited{stroke:#F44336;fill:#F44336}#chart-dc24b140-dda4-4ef6-b713-683ce069595f .color-1,#chart-dc24b140-dda4-4ef6-b713-683ce069595f .color-1 a:visited{stroke:#3F51B5;fill:#3F51B5}#chart-dc24b140-dda4-4ef6-b713-683ce069595f .color-2,#chart-dc24b140-dda4-4ef6-b713-683ce069595f .color-2 a:visited{stroke:#009688;fill:#009688}#chart-dc24b140-dda4-4ef6-b713-683ce069595f .color-3,#chart-dc24b140-dda4-4ef6-b713-683ce069595f .color-3 a:visited{stroke:#FFC107;fill:#FFC107}#chart-dc24b140-dda4-4ef6-b713-683ce069595f .color-4,#chart-dc24b140-dda4-4ef6-b713-683ce069595f .color-4 a:visited{stroke:#FF5722;fill:#FF5722}#chart-dc24b140-dda4-4ef6-b713-683ce069595f .color-5,#chart-dc24b140-dda4-4ef6-b713-683ce069595f .color-5 a:visited{stroke:#9C27B0;fill:#9C27B0}#chart-dc24b140-dda4-4ef6-b713-683ce069595f .color-6,#chart-dc24b140-dda4-4ef6-b713-683ce069595f .color-6 a:visited{stroke:#03A9F4;fill:#03A9F4}#chart-dc24b140-dda4-4ef6-b713-683ce069595f .color-7,#chart-dc24b140-dda4-4ef6-b713-683ce069595f .color-7 a:visited{stroke:#8BC34A;fill:#8BC34A}#chart-dc24b140-dda4-4ef6-b713-683ce069595f .text-overlay .color-0 text{fill:black}#chart-dc24b140-dda4-4ef6-b713-683ce069595f .text-overlay .color-1 text{fill:black}#chart-dc24b140-dda4-4ef6-b713-683ce069595f .text-overlay .color-2 text{fill:black}#chart-dc24b140-dda4-4ef6-b713-683ce069595f .text-overlay .color-3 text{fill:black}#chart-dc24b140-dda4-4ef6-b713-683ce069595f .text-overlay .color-4 text{fill:black}#chart-dc24b140-dda4-4ef6-b713-683ce069595f .text-overlay .color-5 text{fill:black}#chart-dc24b140-dda4-4ef6-b713-683ce069595f .text-overlay .color-6 text{fill:black}#chart-dc24b140-dda4-4ef6-b713-683ce069595f .text-overlay .color-7 text{fill:black}
#chart-dc24b140-dda4-4ef6-b713-683ce069595f text.no_data{text-anchor:middle}#chart-dc24b140-dda4-4ef6-b713-683ce069595f .guide.line{fill:none}#chart-dc24b140-dda4-4ef6-b713-683ce069595f .centered{text-anchor:middle}#chart-dc24b140-dda4-4ef6-b713-683ce069595f .title{text-anchor:middle}#chart-dc24b140-dda4-4ef6-b713-683ce069595f .legends .legend text{fill-opacity:1}#chart-dc24b140-dda4-4ef6-b713-683ce069595f .axis.x text{text-anchor:middle}#chart-dc24b140-dda4-4ef6-b713-683ce069595f .axis.x:not(.web) text[transform]{text-anchor:start}#chart-dc24b140-dda4-4ef6-b713-683ce069595f .axis.x:not(.web) text[transform].backwards{text-anchor:end}#chart-dc24b140-dda4-4ef6-b713-683ce069595f .axis.y text{text-anchor:end}#chart-dc24b140-dda4-4ef6-b713-683ce069595f .axis.y text[transform].backwards{text-anchor:start}#chart-dc24b140-dda4-4ef6-b713-683ce069595f .axis.y2 text{text-anchor:start}#chart-dc24b140-dda4-4ef6-b713-683ce069595f .axis.y2 text[transform].backwards{text-anchor:end}#chart-dc24b140-dda4-4ef6-b713-683ce069595f .axis .guide.line{stroke-dasharray:4,4}#chart-dc24b140-dda4-4ef6-b713-683ce069595f .axis .major.guide.line{stroke-dasharray:6,6}#chart-dc24b140-dda4-4ef6-b713-683ce069595f .horizontal .axis.y .guide.line,#chart-dc24b140-dda4-4ef6-b713-683ce069595f .horizontal .axis.y2 .guide.line,#chart-dc24b140-dda4-4ef6-b713-683ce069595f .vertical .axis.x .guide.line{opacity:0}#chart-dc24b140-dda4-4ef6-b713-683ce069595f .horizontal .axis.always_show .guide.line,#chart-dc24b140-dda4-4ef6-b713-683ce069595f .vertical .axis.always_show .guide.line{opacity:1 !important}#chart-dc24b140-dda4-4ef6-b713-683ce069595f .axis.y .guides:hover .guide.line,#chart-dc24b140-dda4-4ef6-b713-683ce069595f .axis.y2 .guides:hover .guide.line,#chart-dc24b140-dda4-4ef6-b713-683ce069595f .axis.x .guides:hover .guide.line{opacity:1}#chart-dc24b140-dda4-4ef6-b713-683ce069595f .axis .guides:hover text{opacity:1}#chart-dc24b140-dda4-4ef6-b713-683ce069595f .nofill{fill:none}#chart-dc24b140-dda4-4ef6-b713-683ce069595f .subtle-fill{fill-opacity:.2}#chart-dc24b140-dda4-4ef6-b713-683ce069595f .dot{stroke-width:1px;fill-opacity:1}#chart-dc24b140-dda4-4ef6-b713-683ce069595f .dot.active{stroke-width:5px}#chart-dc24b140-dda4-4ef6-b713-683ce069595f .dot.negative{fill:transparent}#chart-dc24b140-dda4-4ef6-b713-683ce069595f text,#chart-dc24b140-dda4-4ef6-b713-683ce069595f tspan{stroke:none !important}#chart-dc24b140-dda4-4ef6-b713-683ce069595f .series text.active{opacity:1}#chart-dc24b140-dda4-4ef6-b713-683ce069595f .tooltip rect{fill-opacity:.95;stroke-width:.5}#chart-dc24b140-dda4-4ef6-b713-683ce069595f .tooltip text{fill-opacity:1}#chart-dc24b140-dda4-4ef6-b713-683ce069595f .showable{visibility:hidden}#chart-dc24b140-dda4-4ef6-b713-683ce069595f .showable.shown{visibility:visible}#chart-dc24b140-dda4-4ef6-b713-683ce069595f .gauge-background{fill:rgba(229,229,229,1);stroke:none}#chart-dc24b140-dda4-4ef6-b713-683ce069595f .bg-lines{stroke:rgba(249,249,249,1);stroke-width:2px}</style><script type="text/javascript">window.pygal = window.pygal || {};window.pygal.config = window.pygal.config || {};window.pygal.config['dc24b140-dda4-4ef6-b713-683ce069595f'] = {"allow_interruptions": false, "box_mode": "extremes", "classes": ["pygal-chart"], "css": ["file://style.css", "file://graph.css"], "defs": [], "disable_xml_declaration": false, "dots_size": 2.5, "dynamic_print_values": false, "explicit_size": false, "fill": true, "force_uri_protocol": "https", "formatter": null, "half_pie": false, "height": 600, "include_x_axis": false, "inner_radius": 0, "interpolate": null, "interpolation_parameters": {}, "interpolation_precision": 250, "inverse_y_axis": false, "js": ["//kozea.github.io/pygal.js/2.0.x/pygal-tooltips.min.js"], "legend_at_bottom": false, "legend_at_bottom_columns": null, "legend_box_size": 12, "logarithmic": false, "margin": 20, "margin_bottom": null, "margin_left": null, "margin_right": null, "margin_top": null, "max_scale": 16, "min_scale": 4, "missing_value_fill_truncation": "x", "no_data_text": "No data", "no_prefix": false, "order_min": null, "pretty_print": false, "print_labels": false, "print_values": false, "print_values_position": "center", "print_zeroes": true, "range": null, "rounded_bars": null, "secondary_range": null, "show_dots": false, "show_legend": true, "show_minor_x_labels": true, "show_minor_y_labels": true, "show_only_major_dots": false, "show_x_guides": false, "show_x_labels": true, "show_y_guides": true, "show_y_labels": true, "spacing": 10, "stack_from_top": false, "strict": false, "stroke": true, "stroke_style": null, "style": {"background": "rgba(249, 249, 249, 1)", "ci_colors": [], "colors": ["#F44336", "#3F51B5", "#009688", "#FFC107", "#FF5722", "#9C27B0", "#03A9F4", "#8BC34A", "#FF9800", "#E91E63", "#2196F3", "#4CAF50", "#FFEB3B", "#673AB7", "#00BCD4", "#CDDC39", "#9E9E9E", "#607D8B"], "font_family": "Consolas, \"Liberation Mono\", Menlo, Courier, monospace", "foreground": "rgba(0, 0, 0, .87)", "foreground_strong": "rgba(0, 0, 0, 1)", "foreground_subtle": "rgba(0, 0, 0, .54)", "guide_stroke_dasharray": "4,4", "label_font_family": "Consolas, \"Liberation Mono\", Menlo, Courier, monospace", "label_font_size": 10, "legend_font_family": "Consolas, \"Liberation Mono\", Menlo, Courier, monospace", "legend_font_size": 14, "major_guide_stroke_dasharray": "6,6", "major_label_font_family": "Consolas, \"Liberation Mono\", Menlo, Courier, monospace", "major_label_font_size": 10, "no_data_font_family": "Consolas, \"Liberation Mono\", Menlo, Courier, monospace", "no_data_font_size": 64, "opacity": ".7", "opacity_hover": ".8", "plot_background": "rgba(255, 255, 255, 1)", "stroke_opacity": ".8", "stroke_opacity_hover": ".9", "title_font_family": "Consolas, \"Liberation Mono\", Menlo, Courier, monospace", "title_font_size": 16, "tooltip_font_family": "Consolas, \"Liberation Mono\", Menlo, Courier, monospace", "tooltip_font_size": 14, "transition": "150ms", "value_background": "rgba(229, 229, 229, 1)", "value_colors": [], "value_font_family": "Consolas, \"Liberation Mono\", Menlo, Courier, monospace", "value_font_size": 16, "value_label_font_family": "Consolas, \"Liberation Mono\", Menlo, Courier, monospace", "value_label_font_size": 10}, "title": "Topics", "tooltip_border_radius": 0, "tooltip_fancy_mode": true, "truncate_label": null, "truncate_legend": null, "width": 800, "x_label_rotation": 0, "x_labels": null, "x_labels_major": null, "x_labels_major_count": null, "x_labels_major_every": null, "x_title": null, "xrange": null, "y_label_rotation": 0, "y_labels": null, "y_labels_major": null, "y_labels_major_count": null, "y_labels_major_every": null, "y_title": null, "zero": 0, "legends": ["topic_0", "topic_1", "topic_2", "topic_3", "topic_4", "topic_5", "topic_6", "topic_7"]}</script><script type="text/javascript" xlink:href="https://kozea.github.io/pygal.js/2.0.x/pygal-tooltips.min.js"/></defs><title>Topics</title><g class="graph stackedline-graph vertical"><rect class="background" height="600" width="800" x="0" y="0"/><g class="plot" transform="translate(122, 46)"><rect class="background" height="534" width="657.2" x="0" y="0"/><g class="axis y always_show"><g class="guides"><path class="axis major line" d="M0.000000 523.730769 h657.200000"/><text class="major" x="-5" y="527.2307692307693">0</text><title>0</title></g><g class="guides"><path class="guide line" d="M0.000000 463.323532 h657.200000"/><text class="" x="-5" y="466.8235317415336">4</text><title>4</title></g><g class="guides"><path class="guide line" d="M0.000000 402.916294 h657.200000"/><text class="" x="-5" y="406.41629425229803">8</text><title>8</title></g><g class="guides"><path class="guide line" d="M0.000000 342.509057 h657.200000"/><text class="" x="-5" y="346.0090567630624">12</text><title>12</title></g><g class="guides"><path class="guide line" d="M0.000000 282.101819 h657.200000"/><text class="" x="-5" y="285.6018192738268">16</text><title>16</title></g><g class="guides"><path class="major guide line" d="M0.000000 221.694582 h657.200000"/><text class="major" x="-5" y="225.19458178459115">20</text><title>20</title></g><g class="guides"><path class="guide line" d="M0.000000 161.287344 h657.200000"/><text class="" x="-5" y="164.78734429535552">24</text><title>24</title></g><g class="guides"><path class="guide line" d="M0.000000 100.880107 h657.200000"/><text class="" x="-5" y="104.3801068061199">28</text><title>28</title></g><g class="guides"><path class="guide line" d="M0.000000 40.472869 h657.200000"/><text class="" x="-5" y="43.97286931688427">32</text><title>32</title></g></g><g class="series serie-0 color-0"><path class="line reactive" d="M12.638462 523.730769 L12.638462 523.730769 26.681197 523.171443 40.723932 523.730769 54.766667 523.730769 68.809402 523.730769 82.852137 523.730769 96.894872 523.074169 110.937607 523.730769 124.980342 523.730769 139.023077 523.730769 153.065812 523.730769 167.108547 523.730769 181.151282 523.730769 195.194017 523.730769 209.236752 521.065744 223.279487 523.730769 237.322222 523.730769 251.364957 522.842427 265.407692 518.696833 279.450427 523.730769 293.493162 519.955317 307.535897 523.191419 321.578632 523.730769 335.621368 520.245736 349.664103 523.730769 363.706838 522.975679 377.749573 523.362432 391.792308 512.070430 405.835043 516.389612 419.877778 514.795532 433.920513 516.909425 447.963248 507.828105 462.005983 516.048945 476.048718 521.980009 490.091453 502.631731 504.134188 507.886265 518.176923 513.709854 532.219658 521.843043 546.262393 505.852891 560.305128 487.540837 574.347863 504.860557 588.390598 523.730769 602.433333 503.741319 616.476068 513.209361 630.518803 523.074169 644.561538 523.730769 644.561538 523.730769"/></g><g class="series serie-1 color-1"><path class="line reactive" d="M12.638462 523.730769 L26.681197 523.171443 40.723932 523.730769 54.766667 523.730769 68.809402 523.730769 82.852137 523.730769 96.894872 523.074169 110.937607 523.730769 124.980342 523.730769 139.023077 523.730769 153.065812 523.730769 167.108547 522.652069 181.151282 523.730769 195.194017 523.730769 209.236752 521.065744 223.279487 523.730769 237.322222 523.730769 251.364957 522.842427 265.407692 517.018854 279.450427 522.472285 293.493162 519.955317 307.535897 523.191419 321.578632 522.398257 335.621368 519.084058 349.664103 523.730769 363.706838 522.975679 377.749573 503.333372 391.792308 463.640025 405.835043 511.635339 419.877778 483.624218 433.920513 471.184043 447.963248 446.688307 462.005983 459.178656 476.048718 473.183025 490.091453 494.058441 504.134188 492.228001 518.176923 509.534129 532.219658 512.674087 546.262393 498.690636 560.305128 467.103299 574.347863 500.047408 588.390598 523.243614 602.433333 497.197201 616.476068 498.533499 630.518803 522.417568 644.561538 519.955317 644.561538 523.730769 630.518803 523.074169 616.476068 513.209361 602.433333 503.741319 588.390598 523.730769 574.347863 504.860557 560.305128 487.540837 546.262393 505.852891 532.219658 521.843043 518.176923 513.709854 504.134188 507.886265 490.091453 502.631731 476.048718 521.980009 462.005983 516.048945 447.963248 507.828105 433.920513 516.909425 419.877778 514.795532 405.835043 516.389612 391.792308 512.070430 377.749573 523.362432 363.706838 522.975679 349.664103 523.730769 335.621368 520.245736 321.578632 523.730769 307.535897 523.191419 293.493162 519.955317 279.450427 523.730769 265.407692 518.696833 251.364957 522.842427 237.322222 523.730769 223.279487 523.730769 209.236752 521.065744 195.194017 523.730769 181.151282 523.730769 167.108547 523.730769 153.065812 523.730769 139.023077 523.730769 124.980342 523.730769 110.937607 523.730769 96.894872 523.074169 82.852137 523.730769 68.809402 523.730769 54.766667 523.730769 40.723932 523.730769 26.681197 523.171443 12.638462 523.730769"/></g><g class="series serie-2 color-2"><path class="line reactive" d="M12.638462 516.179865 L26.681197 523.171443 40.723932 522.220588 54.766667 522.935937 68.809402 522.891780 82.852137 518.696833 96.894872 522.417568 110.937607 515.599025 124.980342 523.730769 139.023077 519.612094 153.065812 520.494667 167.108547 521.573368 181.151282 522.625759 195.194017 523.730769 209.236752 520.177402 223.279487 521.843043 237.322222 523.730769 251.364957 518.400719 265.407692 515.340875 279.450427 522.472285 293.493162 516.179865 307.535897 521.573368 321.578632 521.509915 335.621368 519.084058 349.664103 523.730769 363.706838 510.139140 377.749573 475.414837 391.792308 427.975452 405.835043 503.525108 419.877778 464.293726 433.920513 390.937721 447.963248 376.789172 462.005983 385.835794 476.048718 384.783102 490.091453 432.311380 504.134188 436.524680 518.176923 484.300861 532.219658 495.509045 546.262393 471.041001 560.305128 360.231450 574.347863 456.243579 588.390598 523.243614 602.433333 479.998549 616.476068 496.079455 630.518803 519.134566 644.561538 519.415967 644.561538 519.955317 630.518803 522.417568 616.476068 498.533499 602.433333 497.197201 588.390598 523.243614 574.347863 500.047408 560.305128 467.103299 546.262393 498.690636 532.219658 512.674087 518.176923 509.534129 504.134188 492.228001 490.091453 494.058441 476.048718 473.183025 462.005983 459.178656 447.963248 446.688307 433.920513 471.184043 419.877778 483.624218 405.835043 511.635339 391.792308 463.640025 377.749573 503.333372 363.706838 522.975679 349.664103 523.730769 335.621368 519.084058 321.578632 522.398257 307.535897 523.191419 293.493162 519.955317 279.450427 522.472285 265.407692 517.018854 251.364957 522.842427 237.322222 523.730769 223.279487 523.730769 209.236752 521.065744 195.194017 523.730769 181.151282 523.730769 167.108547 522.652069 153.065812 523.730769 139.023077 523.730769 124.980342 523.730769 110.937607 523.730769 96.894872 523.074169 82.852137 523.730769 68.809402 523.730769 54.766667 523.730769 40.723932 523.730769 26.681197 523.171443 12.638462 523.730769"/></g><g class="series serie-3 color-3"><path class="line reactive" d="M12.638462 516.179865 L26.681197 518.137506 40.723932 522.220588 54.766667 517.372113 68.809402 522.052790 82.852137 518.696833 96.894872 522.417568 110.937607 514.437348 124.980342 523.730769 139.023077 519.612094 153.065812 512.943762 167.108547 521.573368 181.151282 513.417339 195.194017 518.277338 209.236752 520.177402 223.279487 521.843043 237.322222 523.730769 251.364957 512.182327 265.407692 513.662896 279.450427 511.145928 293.493162 509.887444 307.535897 518.876616 321.578632 513.218726 335.621368 517.922381 349.664103 518.067591 363.706838 509.384050 377.749573 452.752502 391.792308 385.848955 405.835043 495.974203 419.877778 424.611182 433.920513 338.942158 447.963248 270.383983 462.005983 320.349172 476.048718 337.927939 490.091453 373.318332 504.134188 358.968870 518.176923 441.678266 532.219658 418.579825 546.262393 445.538191 560.305128 307.065665 574.347863 450.160479 588.390598 522.756459 602.433333 461.937650 616.476068 493.247866 630.518803 515.851564 644.561538 515.640514 644.561538 519.415967 630.518803 519.134566 616.476068 496.079455 602.433333 479.998549 588.390598 523.243614 574.347863 456.243579 560.305128 360.231450 546.262393 471.041001 532.219658 495.509045 518.176923 484.300861 504.134188 436.524680 490.091453 432.311380 476.048718 384.783102 462.005983 385.835794 447.963248 376.789172 433.920513 390.937721 419.877778 464.293726 405.835043 503.525108 391.792308 427.975452 377.749573 475.414837 363.706838 510.139140 349.664103 523.730769 335.621368 519.084058 321.578632 521.509915 307.535897 521.573368 293.493162 516.179865 279.450427 522.472285 265.407692 515.340875 251.364957 518.400719 237.322222 523.730769 223.279487 521.843043 209.236752 520.177402 195.194017 523.730769 181.151282 522.625759 167.108547 521.573368 153.065812 520.494667 139.023077 519.612094 124.980342 523.730769 110.937607 515.599025 96.894872 522.417568 82.852137 518.696833 68.809402 522.891780 54.766667 522.935937 40.723932 522.220588 26.681197 523.171443 12.638462 516.179865"/></g><g class="series serie-4 color-4"><path class="line reactive" d="M12.638462 516.179865 L26.681197 516.459528 40.723932 522.220588 54.766667 513.397952 68.809402 522.052790 82.852137 518.696833 96.894872 522.417568 110.937607 514.437348 124.980342 516.179865 139.023077 519.612094 153.065812 512.943762 167.108547 521.573368 181.151282 510.838982 195.194017 518.277338 209.236752 520.177402 223.279487 519.955317 237.322222 522.052790 251.364957 512.182327 265.407692 513.662896 279.450427 511.145928 293.493162 509.887444 307.535897 518.876616 321.578632 510.997871 335.621368 516.760703 349.664103 518.067591 363.706838 509.384050 377.749573 434.613258 391.792308 364.349449 405.835043 490.940267 419.877778 416.622804 433.920513 311.973644 447.963248 234.693203 462.005983 304.762483 476.048718 318.444542 490.091453 359.270000 504.134188 336.811534 518.176923 409.295694 532.219658 412.010835 546.262393 431.883637 560.305128 294.911888 574.347863 419.638960 588.390598 522.756459 602.433333 458.533749 616.476068 490.793822 630.518803 515.194964 644.561538 515.640514 644.561538 515.640514 630.518803 515.851564 616.476068 493.247866 602.433333 461.937650 588.390598 522.756459 574.347863 450.160479 560.305128 307.065665 546.262393 445.538191 532.219658 418.579825 518.176923 441.678266 504.134188 358.968870 490.091453 373.318332 476.048718 337.927939 462.005983 320.349172 447.963248 270.383983 433.920513 338.942158 419.877778 424.611182 405.835043 495.974203 391.792308 385.848955 377.749573 452.752502 363.706838 509.384050 349.664103 518.067591 335.621368 517.922381 321.578632 513.218726 307.535897 518.876616 293.493162 509.887444 279.450427 511.145928 265.407692 513.662896 251.364957 512.182327 237.322222 523.730769 223.279487 521.843043 209.236752 520.177402 195.194017 518.277338 181.151282 513.417339 167.108547 521.573368 153.065812 512.943762 139.023077 519.612094 124.980342 523.730769 110.937607 514.437348 96.894872 522.417568 82.852137 518.696833 68.809402 522.052790 54.766667 517.372113 40.723932 522.220588 26.681197 518.137506 12.638462 516.179865"/></g><g class="series serie-5 color-5"><path class="line reactive" d="M12.638462 516.179865 L26.681197 513.662896 40.723932 522.220588 54.766667 513.397952 68.809402 509.467950 82.852137 518.696833 96.894872 522.417568 110.937607 514.437348 124.980342 516.179865 139.023077 518.239202 153.065812 511.865062 167.108547 509.707660 181.151282 510.838982 195.194017 518.277338 209.236752 513.959010 223.279487 514.292138 237.322222 510.306938 251.364957 509.517302 265.407692 513.662896 279.450427 509.887444 293.493162 509.887444 307.535897 516.179864 321.578632 499.942952 335.621368 513.275670 349.664103 518.067591 363.706838 509.384050 377.749573 415.045365 391.792308 327.491406 405.835043 486.395741 419.877778 395.670622 433.920513 230.467338 447.963248 134.648886 462.005983 239.028913 476.048718 264.652588 490.091453 286.550660 504.134188 248.012245 518.176923 325.095426 532.219658 401.567915 546.262393 407.676324 560.305128 250.044255 574.347863 410.047110 588.390598 509.603270 602.433333 436.328531 616.476068 450.486021 630.518803 509.285559 644.561538 514.022463 644.561538 515.640514 630.518803 515.194964 616.476068 490.793822 602.433333 458.533749 588.390598 522.756459 574.347863 419.638960 560.305128 294.911888 546.262393 431.883637 532.219658 412.010835 518.176923 409.295694 504.134188 336.811534 490.091453 359.270000 476.048718 318.444542 462.005983 304.762483 447.963248 234.693203 433.920513 311.973644 419.877778 416.622804 405.835043 490.940267 391.792308 364.349449 377.749573 434.613258 363.706838 509.384050 349.664103 518.067591 335.621368 516.760703 321.578632 510.997871 307.535897 518.876616 293.493162 509.887444 279.450427 511.145928 265.407692 513.662896 251.364957 512.182327 237.322222 522.052790 223.279487 519.955317 209.236752 520.177402 195.194017 518.277338 181.151282 510.838982 167.108547 521.573368 153.065812 512.943762 139.023077 519.612094 124.980342 516.179865 110.937607 514.437348 96.894872 522.417568 82.852137 518.696833 68.809402 522.052790 54.766667 513.397952 40.723932 522.220588 26.681197 516.459528 12.638462 516.179865"/></g><g class="series serie-6 color-6"><path class="line reactive" d="M12.638462 516.179865 L26.681197 513.662896 40.723932 522.220588 54.766667 511.013456 68.809402 509.467950 82.852137 513.662896 96.894872 522.417568 110.937607 514.437348 124.980342 516.179865 139.023077 518.239202 153.065812 511.865062 167.108547 509.707660 181.151282 509.733971 195.194017 518.277338 209.236752 513.070668 223.279487 508.628960 237.322222 510.306938 251.364957 509.517302 265.407692 513.662896 279.450427 508.628960 293.493162 509.887444 307.535897 510.247010 321.578632 485.630778 335.621368 512.113992 349.664103 518.067591 363.706838 509.384050 377.749573 400.829335 391.792308 313.213163 405.835043 475.279130 419.877778 367.009913 433.920513 137.903297 447.963248 86.682887 462.005983 191.993283 476.048718 239.923662 490.091453 238.254736 504.134188 220.322181 518.176923 311.904986 532.219658 393.207984 546.262393 393.807089 560.305128 190.921345 574.347863 405.605402 588.390598 509.116115 602.433333 404.469094 616.476068 443.941904 630.518803 509.285559 644.561538 513.483113 644.561538 514.022463 630.518803 509.285559 616.476068 450.486021 602.433333 436.328531 588.390598 509.603270 574.347863 410.047110 560.305128 250.044255 546.262393 407.676324 532.219658 401.567915 518.176923 325.095426 504.134188 248.012245 490.091453 286.550660 476.048718 264.652588 462.005983 239.028913 447.963248 134.648886 433.920513 230.467338 419.877778 395.670622 405.835043 486.395741 391.792308 327.491406 377.749573 415.045365 363.706838 509.384050 349.664103 518.067591 335.621368 513.275670 321.578632 499.942952 307.535897 516.179864 293.493162 509.887444 279.450427 509.887444 265.407692 513.662896 251.364957 509.517302 237.322222 510.306938 223.279487 514.292138 209.236752 513.959010 195.194017 518.277338 181.151282 510.838982 167.108547 509.707660 153.065812 511.865062 139.023077 518.239202 124.980342 516.179865 110.937607 514.437348 96.894872 522.417568 82.852137 518.696833 68.809402 509.467950 54.766667 513.397952 40.723932 522.220588 26.681197 513.662896 12.638462 516.179865"/></g><g class="series serie-7 color-7"><path class="line reactive" d="M12.638462 508.628960 L26.681197 508.628959 40.723932 508.628960 54.766667 508.628960 68.809402 508.628960 82.852137 508.628960 96.894872 508.628959 110.937607 508.628959 124.980342 508.628960 139.023077 508.628960 153.065812 508.628960 167.108547 508.628959 181.151282 508.628961 195.194017 508.628959 209.236752 508.628960 223.279487 508.628960 237.322222 508.628960 251.364957 508.628960 265.407692 508.628960 279.450427 508.628960 293.493162 508.628960 307.535897 508.628960 321.578632 478.425338 335.621368 508.628959 349.664103 508.628960 363.706838 508.628960 377.749573 357.610866 391.792308 282.101813 405.835043 463.323532 419.877778 312.305432 433.920513 55.574668 447.963248 10.269231 462.005983 100.880100 476.048718 176.389151 490.091453 146.185527 504.134188 176.389154 518.176923 297.203623 532.219658 372.712670 546.262393 357.610863 560.305128 146.185531 574.347863 372.712675 588.390598 508.628960 602.433333 372.712673 616.476068 433.119915 630.518803 508.628959 644.561538 508.628960 644.561538 513.483113 630.518803 509.285559 616.476068 443.941904 602.433333 404.469094 588.390598 509.116115 574.347863 405.605402 560.305128 190.921345 546.262393 393.807089 532.219658 393.207984 518.176923 311.904986 504.134188 220.322181 490.091453 238.254736 476.048718 239.923662 462.005983 191.993283 447.963248 86.682887 433.920513 137.903297 419.877778 367.009913 405.835043 475.279130 391.792308 313.213163 377.749573 400.829335 363.706838 509.384050 349.664103 518.067591 335.621368 512.113992 321.578632 485.630778 307.535897 510.247010 293.493162 509.887444 279.450427 508.628960 265.407692 513.662896 251.364957 509.517302 237.322222 510.306938 223.279487 508.628960 209.236752 513.070668 195.194017 518.277338 181.151282 509.733971 167.108547 509.707660 153.065812 511.865062 139.023077 518.239202 124.980342 516.179865 110.937607 514.437348 96.894872 522.417568 82.852137 513.662896 68.809402 509.467950 54.766667 511.013456 40.723932 522.220588 26.681197 513.662896 12.638462 516.179865"/></g></g><g class="titles"><text class="title plot_title" x="400.0" y="26">Topics</text></g><g class="plot overlay" transform="translate(122, 46)"><g class="series serie-0 color-0"/><g class="series serie-1 color-1"/><g class="series serie-2 color-2"/><g class="series serie-3 color-3"/><g class="series serie-4 color-4"/><g class="series serie-5 color-5"/><g class="series serie-6 color-6"/><g class="series serie-7 color-7"/></g><g class="plot text-overlay" transform="translate(122, 46)"><g class="series serie-0 color-0"/><g class="series serie-1 color-1"/><g class="series serie-2 color-2"/><g class="series serie-3 color-3"/><g class="series serie-4 color-4"/><g class="series serie-5 color-5"/><g class="series serie-6 color-6"/><g class="series serie-7 color-7"/></g><g class="plot tooltip-overlay" transform="translate(122, 46)"><g class="tooltip" style="opacity: 0" transform="translate(0 0)"><rect class="tooltip-box" height="0" rx="0" ry="0" width="0"/><g class="text"/></g></g><g class="legends" transform="translate(10, 56)"><g class="legend reactive activate-serie" id="activate-serie-0"><rect class="color-0 reactive" height="12" width="12" x="0.0" y="1.0"/><text x="17.0" y="11.2">topic_0</text></g><g class="legend reactive activate-serie" id="activate-serie-1"><rect class="color-1 reactive" height="12" width="12" x="0.0" y="22.0"/><text x="17.0" y="32.2">topic_1</text></g><g class="legend reactive activate-serie" id="activate-serie-2"><rect class="color-2 reactive" height="12" width="12" x="0.0" y="43.0"/><text x="17.0" y="53.2">topic_2</text></g><g class="legend reactive activate-serie" id="activate-serie-3"><rect class="color-3 reactive" height="12" width="12" x="0.0" y="64.0"/><text x="17.0" y="74.2">topic_3</text></g><g class="legend reactive activate-serie" id="activate-serie-4"><rect class="color-4 reactive" height="12" width="12" x="0.0" y="85.0"/><text x="17.0" y="95.2">topic_4</text></g><g class="legend reactive activate-serie" id="activate-serie-5"><rect class="color-5 reactive" height="12" width="12" x="0.0" y="106.0"/><text x="17.0" y="116.2">topic_5</text></g><g class="legend reactive activate-serie" id="activate-serie-6"><rect class="color-6 reactive" height="12" width="12" x="0.0" y="127.0"/><text x="17.0" y="137.2">topic_6</text></g><g class="legend reactive activate-serie" id="activate-serie-7"><rect class="color-7 reactive" height="12" width="12" x="0.0" y="148.0"/><text x="17.0" y="158.2">topic_7</text></g></g><g class="legends" transform="translate(790, 56)"/></g></svg>