<?xml version='1.0' encoding='utf-8'?>
<svg xmlns:xlink="http://www.w3.org/1999/xlink" xmlns="http://www.w3.org/2000/svg" id="chart-ea9ac9cb-70d5-4323-8d54-ebd32fb1a09b" class="pygal-chart" viewBox="0 0 800 600"><!--Generated with pygal 2.4.0 (lxml) ©Kozea 2012-2016 on 2019-02-03--><!--http://pygal.org--><!--http://github.com/Kozea/pygal--><defs><style type="text/css">#chart-ea9ac9cb-70d5-4323-8d54-ebd32fb1a09b{-webkit-user-select:none;-webkit-font-smoothing:antialiased;font-family:Consolas,"Liberation Mono",Menlo,Courier,monospace}#chart-ea9ac9cb-70d5-4323-8d54-ebd32fb1a09b .title{font-family:Consolas,"Liberation Mono",Menlo,Courier,monospace;font-size:16px}#chart-ea9ac9cb-70d5-4323-8d54-ebd32fb1a09b .legends .legend text{font-family:Consolas,"Liberation Mono",Menlo,Courier,monospace;font-size:14px}#chart-ea9ac9cb-70d5-4323-8d54-ebd32fb1a09b .axis text{font-family:Consolas,"Liberation Mono",Menlo,Courier,monospace;font-size:10px}#chart-ea9ac9cb-70d5-4323-8d54-ebd32fb1a09b .axis text.major{font-family:Consolas,"Liberation Mono",Menlo,Courier,monospace;font-size:10px}#chart-ea9ac9cb-70d5-4323-8d54-ebd32fb1a09b .text-overlay text.value{font-family:Consolas,"Liberation Mono",Menlo,Courier,monospace;font-size:16px}#chart-ea9ac9cb-70d5-4323-8d54-ebd32fb1a09b .text-overlay text.label{font-family:Consolas,"Liberation Mono",Menlo,Courier,monospace;font-size:10px}#chart-ea9ac9cb-70d5-4323-8d54-ebd32fb1a09b .tooltip{font-family:Consolas,"Liberation Mono",Menlo,Courier,monospace;font-size:14px}#chart-ea9ac9cb-70d5-4323-8d54-ebd32fb1a09b text.no_data{font-family:Consolas,"Liberation Mono",Menlo,Courier,monospace;font-size:64px}
#chart-ea9ac9cb-70d5-4323-8d54-ebd32fb1a09b{background-color:rgba(249,249,249,1)}#chart-ea9ac9cb-70d5-4323-8d54-ebd32fb1a09b path,#chart-ea9ac9cb-70d5-4323-8d54-ebd32fb1a09b line,#chart-ea9ac9cb-70d5-4323-8d54-ebd32fb1a09b rect,#chart-ea9ac9cb-70d5-4323-8d54-ebd32fb1a09b circle{-webkit-transition:150ms;-moz-transition:150ms;transition:150ms}#chart-ea9ac9cb-70d5-4323-8d54-ebd32fb1a09b .graph &gt; .background{fill:rgba(249,249,249,1)}#chart-ea9ac9cb-70d5-4323-8d54-ebd32fb1a09b .plot &gt; .background{fill:rgba(255,255,255,1)}#chart-ea9ac9cb-70d5-4323-8d54-ebd32fb1a09b .graph{fill:rgba(0,0,0,.87)}#chart-ea9ac9cb-70d5-4323-8d54-ebd32fb1a09b text.no_data{fill:rgba(0,0,0,1)}#chart-ea9ac9cb-70d5-4323-8d54-ebd32fb1a09b .title{fill:rgba(0,0,0,1)}#chart-ea9ac9cb-70d5-4323-8d54-ebd32fb1a09b .legends .legend text{fill:rgba(0,0,0,.87)}#chart-ea9ac9cb-70d5-4323-8d54-ebd32fb1a09b .legends .legend:hover text{fill:rgba(0,0,0,1)}#chart-ea9ac9cb-70d5-4323-8d54-ebd32fb1a09b .axis .line{stroke:rgba(0,0,0,1)}#chart-ea9ac9cb-70d5-4323-8d54-ebd32fb1a09b .axis .guide.line{stroke:rgba(0,0,0,.54)}#chart-ea9ac9cb-70d5-4323-8d54-ebd32fb1a09b .axis .major.line{stroke:rgba(0,0,0,.87)}#chart-ea9ac9cb-70d5-4323-8d54-ebd32fb1a09b .axis text.major{fill:rgba(0,0,0,1)}#chart-ea9ac9cb-70d5-4323-8d54-ebd32fb1a09b .axis.y .guides:hover .guide.line,#chart-ea9ac9cb-70d5-4323-8d54-ebd32fb1a09b .line-graph .axis.x .guides:hover .guide.line,#chart-ea9ac9cb-70d5-4323-8d54-ebd32fb1a09b .stackedline-graph .axis.x .guides:hover .guide.line,#chart-ea9ac9cb-70d5-4323-8d54-ebd32fb1a09b .xy-graph .axis.x .guides:hover .guide.line{stroke:rgba(0,0,0,1)}#chart-ea9ac9cb-70d5-4323-8d54-ebd32fb1a09b .axis .guides:hover text{fill:rgba(0,0,0,1)}#chart-ea9ac9cb-70d5-4323-8d54-ebd32fb1a09b .reactive{fill-opacity:.7;stroke-opacity:.8}#chart-ea9ac9cb-70d5-4323-8d54-ebd32fb1a09b .ci{stroke:rgba(0,0,0,.87)}#chart-ea9ac9cb-70d5-4323-8d54-ebd32fb1a09b .reactive.active,#chart-ea9ac9cb-70d5-4323-8d54-ebd32fb1a09b .active .reactive{fill-opacity:.8;stroke-opacity:.9;stroke-width:4}#chart-ea9ac9cb-70d5-4323-8d54-ebd32fb1a09b .ci .reactive.active{stroke-width:1.5}#chart-ea9ac9cb-70d5-4323-8d54-ebd32fb1a09b .series text{fill:rgba(0,0,0,1)}#chart-ea9ac9cb-70d5-4323-8d54-ebd32fb1a09b .tooltip rect{fill:rgba(255,255,255,1);stroke:rgba(0,0,0,1);-webkit-transition:opacity 150ms;-moz-transition:opacity 150ms;transition:opacity 150ms}#chart-ea9ac9cb-70d5-4323-8d54-ebd32fb1a09b .tooltip .label{fill:rgba(0,0,0,.87)}#chart-ea9ac9cb-70d5-4323-8d54-ebd32fb1a09b .tooltip .label{fill:rgba(0,0,0,.87)}#chart-ea9ac9cb-70d5-4323-8d54-ebd32fb1a09b .tooltip .legend{font-size:.8em;fill:rgba(0,0,0,.54)}#chart-ea9ac9cb-70d5-4323-8d54-ebd32fb1a09b .tooltip .x_label{font-size:.6em;fill:rgba(0,0,0,1)}#chart-ea9ac9cb-70d5-4323-8d54-ebd32fb1a09b .tooltip .xlink{font-size:.5em;text-decoration:underline}#chart-ea9ac9cb-70d5-4323-8d54-ebd32fb1a09b .tooltip .value{font-size:1.5em}#chart-ea9ac9cb-70d5-4323-8d54-ebd32fb1a09b .bound{font-size:.5em}#chart-ea9ac9cb-70d5-4323-8d54-ebd32fb1a09b .max-value{font-size:.75em;fill:rgba(0,0,0,.54)}#chart-ea9ac9cb-70d5-4323-8d54-ebd32fb1a09b .map-element{fill:rgba(255,255,255,1);stroke:rgba(0,0,0,.54) !important}#chart-ea9ac9cb-70d5-4323-8d54-ebd32fb1a09b .map-element .reactive{fill-opacity:inherit;stroke-opacity:inherit}#chart-ea9ac9cb-70d5-4323-8d54-ebd32fb1a09b .color-0,#chart-ea9ac9cb-70d5-4323-8d54-ebd32fb1a09b .color-0 a:visited{stroke:#F44336;fill:#F44336}#chart-ea9ac9cb-70d5-4323-8d54-ebd32fb1a09b .color-1,#chart-ea9ac9cb-70d5-4323-8d54-ebd32fb1a09b .color-1 a:visited{stroke:#3F51B5;fill:#3F51B5}#chart-ea9ac9cb-70d5-4323-8d54-ebd32fb1a09b .color-2,#chart-ea9ac9cb-70d5-4323-8d54-ebd32fb1a09b .color-2 a:visited{stroke:#009688;fill:#009688}#chart-ea9ac9cb-70d5-4323-8d54-ebd32fb1a09b .color-3,#chart-ea9ac9cb-70d5-4323-8d54-ebd32fb1a09b .color-3 a:visited{stroke:#FFC107;fill:#FFC107}#chart-ea9ac9cb-70d5-4323-8d54-ebd32fb1a09b .text-overlay .color-0 text{fill:black}#chart-ea9ac9cb-70d5-4323-8d54-ebd32fb1a09b .text-overlay .color-1 text{fill:black}#chart-ea9ac9cb-70d5-4323-8d54-ebd32fb1a09b .text-overlay .color-2 text{fill:black}#chart-ea9ac9cb-70d5-4323-8d54-ebd32fb1a09b .text-overlay .color-3 text{fill:black}
#chart-ea9ac9cb-70d5-4323-8d54-ebd32fb1a09b text.no_data{text-anchor:middle}#chart-ea9ac9cb-70d5-4323-8d54-ebd32fb1a09b .guide.line{fill:none}#chart-ea9ac9cb-70d5-4323-8d54-ebd32fb1a09b .centered{text-anchor:middle}#chart-ea9ac9cb-70d5-4323-8d54-ebd32fb1a09b .title{text-anchor:middle}#chart-ea9ac9cb-70d5-4323-8d54-ebd32fb1a09b .legends .legend text{fill-opacity:1}#chart-ea9ac9cb-70d5-4323-8d54-ebd32fb1a09b .axis.x text{text-anchor:middle}#chart-ea9ac9cb-70d5-4323-8d54-ebd32fb1a09b .axis.x:not(.web) text[transform]{text-anchor:start}#chart-ea9ac9cb-70d5-4323-8d54-ebd32fb1a09b .axis.x:not(.web) text[transform].backwards{text-anchor:end}#chart-ea9ac9cb-70d5-4323-8d54-ebd32fb1a09b .axis.y text{text-anchor:end}#chart-ea9ac9cb-70d5-4323-8d54-ebd32fb1a09b .axis.y text[transform].backwards{text-anchor:start}#chart-ea9ac9cb-70d5-4323-8d54-ebd32fb1a09b .axis.y2 text{text-anchor:start}#chart-ea9ac9cb-70d5-4323-8d54-ebd32fb1a09b .axis.y2 text[transform].backwards{text-anchor:end}#chart-ea9ac9cb-70d5-4323-8d54-ebd32fb1a09b .axis .guide.line{stroke-dasharray:4,4}#chart-ea9ac9cb-70d5-4323-8d54-ebd32fb1a09b .axis .major.guide.line{stroke-dasharray:6,6}#chart-ea9ac9cb-70d5-4323-8d54-ebd32fb1a09b .horizontal .axis.y .guide.line,#chart-ea9ac9cb-70d5-4323-8d54-ebd32fb1a09b .horizontal .axis.y2 .guide.line,#chart-ea9ac9cb-70d5-4323-8d54-ebd32fb1a09b .vertical .axis.x .guide.line{opacity:0}#chart-ea9ac9cb-70d5-4323-8d54-ebd32fb1a09b .horizontal .axis.always_show .guide.line,#chart-ea9ac9cb-70d5-4323-8d54-ebd32fb1a09b .vertical .axis.always_show .guide.line{opacity:1 !important}#chart-ea9ac9cb-70d5-4323-8d54-ebd32fb1a09b .axis.y .guides:hover .guide.line,#chart-ea9ac9cb-70d5-4323-8d54-ebd32fb1a09b .axis.y2 .guides:hover .guide.line,#chart-ea9ac9cb-70d5-4323-8d54-ebd32fb1a09b .axis.x .guides:hover .guide.line{opacity:1}#chart-ea9ac9cb-70d5-4323-8d54-ebd32fb1a09b .axis .guides:hover text{opacity:1}#chart-ea9ac9cb-70d5-4323-8d54-ebd32fb1a09b .nofill{fill:none}#chart-ea9ac9cb-70d5-4323-8d54-ebd32fb1a09b .subtle-fill{fill-opacity:.2}#chart-ea9ac9cb-70d5-4323-8d54-ebd32fb1a09b .dot{stroke-width:1px;fill-opacity:1}#chart-ea9ac9cb-70d5-4323-8d54-ebd32fb1a09b .dot.active{stroke-width:5px}#chart-ea9ac9cb-70d5-4323-8d54-ebd32fb1a09b .dot.negative{fill:transparent}#chart-ea9ac9cb-70d5-4323-8d54-ebd32fb1a09b text,#chart-ea9ac9cb-70d5-4323-8d54-ebd32fb1a09b tspan{stroke:none !important}#chart-ea9ac9cb-70d5-4323-8d54-ebd32fb1a09b .series text.active{opacity:1}#chart-ea9ac9cb-70d5-4323-8d54-ebd32fb1a09b .tooltip rect{fill-opacity:.95;stroke-width:.5}#chart-ea9ac9cb-70d5-4323-8d54-ebd32fb1a09b .tooltip text{fill-opacity:1}#chart-ea9ac9cb-70d5-4323-8d54-ebd32fb1a09b .showable{visibility:hidden}#chart-ea9ac9cb-70d5-4323-8d54-ebd32fb1a09b .showable.shown{visibility:visible}#chart-ea9ac9cb-70d5-4323-8d54-ebd32fb1a09b .gauge-background{fill:rgba(229,229,229,1);stroke:none}#chart-ea9ac9cb-70d5-4323-8d54-ebd32fb1a09b .bg-lines{stroke:rgba(249,249,249,1);stroke-width:2px}</style><script type="text/javascript">window.pygal = window.pygal || {};window.pygal.config = window.pygal.config || {};window.pygal.config['ea9ac9cb-70d5-4323-8d54-ebd32fb1a09b'] = {"allow_interruptions": false, "box_mode": "extremes", "classes": ["pygal-chart"], "css": ["file://style.css", "file://graph.css"], "defs": [], "disable_xml_declaration": false, "dots_size": 2.5, "dynamic_print_values": false, "explicit_size": false, "fill": true, "force_uri_protocol": "https", "formatter": null, "half_pie": false, "height": 600, "include_x_axis": false, "inner_radius": 0, "interpolate": null, "interpolation_parameters": {}, "interpolation_precision": 250, "inverse_y_axis": false, "js": ["//kozea.github.io/pygal.js/2.0.x/pygal-tooltips.min.js"], "legend_at_bottom": false, "legend_at_bottom_columns": null, "legend_box_size": 12, "logarithmic": false, "margin": 20, "margin_bottom": null, "margin_left": null, "margin_right": null, "margin_top": null, "max_scale": 16, "min_scale": 4, "missing_value_fill_truncation": "x", "no_data_text": "No data", "no_prefix": false, "order_min": null, "pretty_print": false, "print_labels": false, "print_values": false, "print_values_position": "center", "print_zeroes": true, "range": null, "rounded_bars": null, "secondary_range": null, "show_dots": false, "show_legend": true, "show_minor_x_labels": true, "show_minor_y_labels": true, "show_only_major_dots": false, "show_x_guides": false, "show_x_labels": true, "show_y_guides": true, "show_y_labels": true, "spacing": 10, "stack_from_top": false, "strict": false, "stroke": true, "stroke_style": null, "style": {"background": "rgba(249, 249, 249, 1)", "ci_colors": [], "colors": ["#F44336", "#3F51B5", "#009688", "#FFC107", "#FF5722", "#9C27B0", "#03A9F4", "#8BC34A", "#FF9800", "#E91E63", "#2196F3", "#4CAF50", "#FFEB3B", "#673AB7", "#00BCD4", "#CDDC39", "#9E9E9E", "#607D8B"], "font_family": "Consolas, \"Liberation Mono\", Menlo, Courier, monospace", "foreground": "rgba(0, 0, 0, .87)", "foreground_strong": "rgba(0, 0, 0, 1)", "foreground_subtle": "rgba(0, 0, 0, .54)", "guide_stroke_dasharray": "4,4", "label_font_family": "Consolas, \"Liberation Mono\", Menlo, Courier, monospace", "label_font_size": 10, "legend_font_family": "Consolas, \"Liberation Mono\", Menlo, Courier, monospace", "legend_font_size": 14, "major_guide_stroke_dasharray": "6,6", "major_label_font_family": "Consolas, \"Liberation Mono\", Menlo, Courier, monospace", "major_label_font_size": 10, "no_data_font_family": "Consolas, \"Liberation Mono\", Menlo, Courier, monospace", "no_data_font_size": 64, "opacity": ".7", "opacity_hover": ".8", "plot_background": "rgba(255, 255, 255, 1)", "stroke_opacity": ".8", "stroke_opacity_hover": ".9", "title_font_family": "Consolas, \"Liberation Mono\", Menlo, Courier, monospace", "title_font_size": 16, "tooltip_font_family": "Consolas, \"Liberation Mono\", Menlo, Courier, monospace", "tooltip_font_size": 14, "transition": "150ms", "value_background": "rgba(229, 229, 229, 1)", "value_colors": [], "value_font_family": "Consolas, \"Liberation Mono\", Menlo, Courier, monospace", "value_font_size": 16, "value_label_font_family": "Consolas, \"Liberation Mono\", Menlo, Courier, monospace", "value_label_font_size": 10}, "title": "Topics", "tooltip_border_radius": 0, "tooltip_fancy_mode": true, "truncate_label": null, "truncate_legend": null, "width": 800, "x_label_rotation": 0, "x_labels": null, "x_labels_major": null, "x_labels_major_count": null, "x_labels_major_every": null, "x_title": null, "xrange": null, "y_label_rotation": 0, "y_labels": null, "y_labels_major": null, "y_labels_major_count": null, "y_labels_major_every": null, "y_title": null, "zero": 0, "legends": ["topic_0", "topic_1", "topic_2", "topic_3"]}</script><script type="text/javascript" xlink:href="https://kozea.github.io/pygal.js/2.0.x/pygal-tooltips.min.js"/></defs><title>Topics</title><g class="graph stackedline-graph vertical"><rect class="background" height="600" width="800" x="0" y="0"/><g class="plot" transform="translate(122, 46)"><rect class="background" height="534" width="657.2" x="0" y="0"/><g class="axis y always_show"><g class="guides"><path class="axis major line" d="M0.000000 523.730769 h657.200000"/><text class="major" x="-5" y="527.2307692307693">0</text><title>0</title></g><g class="guides"><path class="guide line" d="M0.000000 482.653846 h657.200000"/><text class="" x="-5" y="486.15384615384613">2</text><title>2</title></g><g class="guides"><path class="guide line" d="M0.000000 441.576923 h657.200000"/><text class="" x="-5" y="445.0769230769231">4</text><title>4</title></g><g class="guides"><path class="guide line" d="M0.000000 400.500000 h657.200000"/><text class="" x="-5" y="404.0">6</text><title>6</title></g><g class="guides"><path class="guide line" d="M0.000000 359.423077 h657.200000"/><text class="" x="-5" y="362.9230769230769">8</text><title>8</title></g><g class="guides"><path class="major guide line" d="M0.000000 318.346154 h657.200000"/><text class="major" x="-5" y="321.8461538461538">10</text><title>10</title></g><g class="guides"><path class="guide line" d="M0.000000 277.269231 h657.200000"/><text class="" x="-5" y="280.7692307692308">12</text><title>12</title></g><g class="guides"><path class="guide line" d="M0.000000 236.192308 h657.200000"/><text class="" x="-5" y="239.69230769230768">14</text><title>14</title></g><g class="guides"><path class="guide line" d="M0.000000 195.115385 h657.200000"/><text class="" x="-5" y="198.61538461538464">16</text><title>16</title></g><g class="guides"><path class="guide line" d="M0.000000 154.038462 h657.200000"/><text class="" x="-5" y="157.53846153846155">18</text><title>18</title></g><g class="guides"><path class="major guide line" d="M0.000000 112.961538 h657.200000"/><text class="major" x="-5" y="116.46153846153845">20</text><title>20</title></g><g class="guides"><path class="guide line" d="M0.000000 71.884615 h657.200000"/><text class="" x="-5" y="75.38461538461536">22</text><title>22</title></g><g class="guides"><path class="guide line" d="M0.000000 30.807692 h657.200000"/><text class="" x="-5" y="34.30769230769232">24</text><title>24</title></g></g><g class="series serie-0 color-0"><path class="line reactive" d="M12.638462 523.730769 L12.638462 523.730769 28.436538 523.730769 44.234615 523.730769 60.032692 523.730769 75.830769 523.730769 91.628846 503.192308 107.426923 523.730769 123.225000 523.730769 139.023077 523.730769 154.821154 523.730769 170.619231 523.730769 186.417308 523.730769 202.215385 523.730769 218.013462 523.545738 233.811538 523.730769 249.609615 523.730769 265.407692 523.730769 281.205769 513.461538 297.003846 523.730769 312.801923 523.730769 328.600000 523.730769 344.398077 523.730769 360.196154 523.730769 375.994231 523.730769 391.792308 521.676923 407.590385 520.796703 423.388462 523.730769 439.186538 523.730769 454.984615 507.756410 470.782692 513.461538 486.580769 523.730769 502.378846 511.784229 518.176923 482.081568 533.975000 512.320511 549.773077 458.349999 565.571154 375.444824 581.369231 466.105194 597.167308 479.387542 612.965385 433.911265 628.763462 507.300000 644.561538 513.461538 644.561538 523.730769"/></g><g class="series serie-1 color-1"><path class="line reactive" d="M12.638462 520.307693 L28.436538 506.615384 44.234615 523.730769 60.032692 523.730769 75.830769 523.730769 91.628846 503.192308 107.426923 513.461537 123.225000 523.730769 139.023077 523.730769 154.821154 523.730769 170.619231 513.461538 186.417308 516.884616 202.215385 518.596153 218.013462 503.377339 233.811538 523.730769 249.609615 503.192308 265.407692 523.730769 281.205769 513.461538 297.003846 523.730769 312.801923 523.730769 328.600000 523.730769 344.398077 508.326923 360.196154 503.192308 375.994231 523.730769 391.792308 512.434615 407.590385 517.862638 423.388462 510.441176 439.186538 513.461538 454.984615 499.483974 470.782692 510.894231 486.580769 523.730769 502.378846 498.703186 518.176923 443.055311 533.975000 452.070282 549.773077 349.545057 565.571154 188.080370 581.369231 348.430268 597.167308 353.842235 612.965385 331.321613 628.763462 499.312820 644.561538 513.461538 644.561538 513.461538 628.763462 507.300000 612.965385 433.911265 597.167308 479.387542 581.369231 466.105194 565.571154 375.444824 549.773077 458.349999 533.975000 512.320511 518.176923 482.081568 502.378846 511.784229 486.580769 523.730769 470.782692 513.461538 454.984615 507.756410 439.186538 523.730769 423.388462 523.730769 407.590385 520.796703 391.792308 521.676923 375.994231 523.730769 360.196154 523.730769 344.398077 523.730769 328.600000 523.730769 312.801923 523.730769 297.003846 523.730769 281.205769 513.461538 265.407692 523.730769 249.609615 523.730769 233.811538 523.730769 218.013462 523.545738 202.215385 523.730769 186.417308 523.730769 170.619231 523.730769 154.821154 523.730769 139.023077 523.730769 123.225000 523.730769 107.426923 523.730769 91.628846 503.192308 75.830769 523.730769 60.032692 523.730769 44.234615 523.730769 28.436538 523.730769 12.638462 523.730769"/></g><g class="series serie-2 color-2"><path class="line reactive" d="M12.638462 520.307693 L28.436538 503.192307 44.234615 523.730769 60.032692 523.730769 75.830769 523.730769 91.628846 503.192308 107.426923 513.461537 123.225000 523.730769 139.023077 523.730769 154.821154 523.730769 170.619231 513.461538 186.417308 510.038462 202.215385 518.596153 218.013462 503.377339 233.811538 503.192308 249.609615 503.192308 265.407692 523.730769 281.205769 513.461538 297.003846 523.730769 312.801923 523.730769 328.600000 523.730769 344.398077 508.326923 360.196154 503.192308 375.994231 505.246153 391.792308 512.434615 407.590385 517.862638 423.388462 509.233031 439.186538 513.461538 454.984615 498.628205 470.782692 482.653846 486.580769 508.326921 502.378846 452.897524 518.176923 422.246607 533.975000 400.271795 549.773077 263.772532 565.571154 95.380107 581.369231 249.254043 597.167308 291.676353 612.965385 271.068984 628.763462 499.312820 644.561538 513.461538 644.561538 513.461538 628.763462 499.312820 612.965385 331.321613 597.167308 353.842235 581.369231 348.430268 565.571154 188.080370 549.773077 349.545057 533.975000 452.070282 518.176923 443.055311 502.378846 498.703186 486.580769 523.730769 470.782692 510.894231 454.984615 499.483974 439.186538 513.461538 423.388462 510.441176 407.590385 517.862638 391.792308 512.434615 375.994231 523.730769 360.196154 503.192308 344.398077 508.326923 328.600000 523.730769 312.801923 523.730769 297.003846 523.730769 281.205769 513.461538 265.407692 523.730769 249.609615 503.192308 233.811538 523.730769 218.013462 503.377339 202.215385 518.596153 186.417308 516.884616 170.619231 513.461538 154.821154 523.730769 139.023077 523.730769 123.225000 523.730769 107.426923 513.461537 91.628846 503.192308 75.830769 523.730769 60.032692 523.730769 44.234615 523.730769 28.436538 506.615384 12.638462 520.307693"/></g><g class="series serie-3 color-3"><path class="line reactive" d="M12.638462 503.192307 L28.436538 503.192307 44.234615 503.192308 60.032692 503.192308 75.830769 503.192308 91.628846 503.192308 107.426923 503.192306 123.225000 523.730769 139.023077 523.730769 154.821154 503.192308 170.619231 503.192308 186.417308 503.192308 202.215385 503.192307 218.013462 503.192308 233.811538 503.192308 249.609615 482.653846 265.407692 523.730769 281.205769 503.192306 297.003846 523.730769 312.801923 523.730769 328.600000 523.730769 344.398077 503.192308 360.196154 503.192308 375.994231 503.192307 391.792308 482.653845 407.590385 503.192308 423.388462 503.192308 439.186538 503.192308 454.984615 482.653846 470.782692 482.653846 486.580769 503.192306 502.378846 441.576919 518.176923 421.038463 533.975000 379.961538 549.773077 256.730774 565.571154 10.269231 581.369231 215.653841 597.167308 256.730767 612.965385 215.653851 628.763462 441.576926 644.561538 503.192306 644.561538 513.461538 628.763462 499.312820 612.965385 271.068984 597.167308 291.676353 581.369231 249.254043 565.571154 95.380107 549.773077 263.772532 533.975000 400.271795 518.176923 422.246607 502.378846 452.897524 486.580769 508.326921 470.782692 482.653846 454.984615 498.628205 439.186538 513.461538 423.388462 509.233031 407.590385 517.862638 391.792308 512.434615 375.994231 505.246153 360.196154 503.192308 344.398077 508.326923 328.600000 523.730769 312.801923 523.730769 297.003846 523.730769 281.205769 513.461538 265.407692 523.730769 249.609615 503.192308 233.811538 503.192308 218.013462 503.377339 202.215385 518.596153 186.417308 510.038462 170.619231 513.461538 154.821154 523.730769 139.023077 523.730769 123.225000 523.730769 107.426923 513.461537 91.628846 503.192308 75.830769 523.730769 60.032692 523.730769 44.234615 523.730769 28.436538 503.192307 12.638462 520.307693"/></g></g><g class="titles"><text class="title plot_title" x="400.0" y="26">Topics</text></g><g class="plot overlay" transform="translate(122, 46)"><g class="series serie-0 color-0"/><g class="series serie-1 color-1"/><g class="series serie-2 color-2"/><g class="series serie-3 color-3"/></g><g class="plot text-overlay" transform="translate(122, 46)"><g class="series serie-0 color-0"/><g class="series serie-1 color-1"/><g class="series serie-2 color-2"/><g class="series serie-3 color-3"/></g><g class="plot tooltip-overlay" transform="translate(122, 46)"><g class="tooltip" style="opacity: 0" transform="translate(0 0)"><rect class="tooltip-box" height="0" rx="0" ry="0" width="0"/><g class="text"/></g></g><g class="legends" transform="translate(10, 56)"><g class="legend reactive activate-serie" id="activate-serie-0"><rect class="color-0 reactive" height="12" width="12" x="0.0" y="1.0"/><text x="17.0" y="11.2">topic_0</text></g><g class="legend reactive activate-serie" id="activate-serie-1"><rect class="color-1 reactive" height="12" width="12" x="0.0" y="22.0"/><text x="17.0" y="32.2">topic_1</text></g><g class="legend reactive activate-serie" id="activate-serie-2"><rect class="color-2 reactive" height="12" width="12" x="0.0" y="43.0"/><text x="17.0" y="53.2">topic_2</text></g><g class="legend reactive activate-serie" id="activate-serie-3"><rect class="color-3 reactive" height="12" width="12" x="0.0" y="64.0"/><text x="17.0" y="74.2">topic_3</text></g></g><g class="legends" transform="translate(790, 56)"/></g></svg>